# xmcd
#
# Track frame offsets:
#	182
#	17755
#	34562
#	44285
#	62215
#	72977
#	93817
#	110347
#	126072
#	142407
#	160977
#	179875
#	202157
#
# Disc length: 2933 seconds
#
# Revision: 1
# Processed by: cddbd v1.4PL0 Copyright (c) Steve Scherf et al.
# Submitted via: audiograbber 1.81.02
#
DISCID=c20b730d
DTITLE=Country Dedows - Bulacina
DYEAR=1993
DGENRE=Country
TTITLE0=Jizni eskadrona
TTITLE1=Kasperk
TTITLE2=Honaci
TTITLE3=Marnost
TTITLE4=Ptaci kral
TTITLE5=Nech bejt svuj vrak
TTITLE6=Cas na uteku
TTITLE7=Pohoda
TTITLE8=Dimenze
TTITLE9=Snar
TTITLE10=Par radku
TTITLE11=Capek
TTITLE12=Bulacina
EXTD=
EXTT0=
EXTT1=
EXTT2=
EXTT3=
EXTT4=
EXTT5=
EXTT6=
EXTT7=
EXTT8=
EXTT9=
EXTT10=
EXTT11=
EXTT12=
PLAYORDER=
